REM MD5 2bf82889b4d86e40a3c2ddefb2a8e0c4
FILE "Chess 2000 (Japan).bin" BINARY
  TRACK 01 MODE2/2352
    INDEX 01 00:00:00
  TRACK 02 AUDIO
    INDEX 00 00:11:55
    INDEX 01 00:13:55
  TRACK 03 AUDIO
    INDEX 00 06:37:64
    INDEX 01 06:39:64
  TRACK 04 AUDIO
    INDEX 00 14:11:43
    INDEX 01 14:13:43
REM LEADOUT 19:20:67
